<?xml version="1.0" encoding="UTF-8"?>
<svg width="322px" height="282px" viewBox="0 0 322 282" version="1.1" xmlns="http://www.w3.org/2000/svg" xmlns:xlink="http://www.w3.org/1999/xlink">
    <title>lax-stats-logo</title>
    <defs>
        <filter id="filter-1">
            <feColorMatrix in="SourceGraphic" type="matrix" values="0 0 0 0 0.345098 0 0 0 0 0.313725 0 0 0 0 0.925490 0 0 0 1.000000 0"></feColorMatrix>
        </filter>
    </defs>
    <g id="Page-1" stroke="none" stroke-width="1" fill="none" fill-rule="evenodd">
        <rect id="Rectangle" fill="#5850EC" x="93" y="182" width="40" height="90"></rect>
        <rect id="Rectangle" fill="#5850EC" x="153" y="152" width="40" height="120"></rect>
        <rect id="Rectangle" fill="#5850EC" x="213" y="122" width="40" height="150"></rect>
        <rect id="Rectangle" fill="#5850EC" x="273" y="92" width="40" height="180"></rect>
        <line x1="5.5" y1="5.5" x2="5.5" y2="276.5" id="Line" stroke="#5850EC" stroke-width="10" fill="#5850EC" stroke-linecap="square"></line>
        <line x1="5.5" y1="276.5" x2="316.5" y2="276.5" id="Line-2" stroke="#5850EC" stroke-width="10" fill="#5850EC" stroke-linecap="square"></line>
        <rect id="Rectangle" fill="#5850EC" x="33" y="212" width="40" height="60"></rect>
        <g filter="url(#filter-1)" id="CP173">
            <g transform="translate(166.500000, 91.000000) rotate(89.000000) translate(-166.500000, -91.000000) translate(79.000000, -44.000000)">
                <path d="M72.225,12.0075 C66.17375,1.27125 46.28375,-6.09625 24.64,7.0125 C2.99625,20.12125 -4.56375,37.05125 2.655,49.8575 C4.2475,52.39375 6.23375,54.6275 8.4525,56.635 C8.4275,56.70125 8.7,56.85625 8.7,56.85625 C18.0325,65.1675 31.34,69.58375 37.17625,75.62375 C40.49125,79.055 48.81625,89.11875 55.9125,104.835 C57.91,109.255 63.24,110.4775 72.4325,114.38625 C81.5475,118.26375 83.95,126.7575 83.95,126.7575 L86.3075,125.495 L166.47875,267.7325 C167.68625,269.87625 170.40375,270.63375 172.545,269.42625 C174.69,268.2175 175.4475,265.5 174.24,263.35875 L94.1625,121.28625 L96.17,120.21125 C96.17,120.21125 89.34,107.1875 90.995,101.25375 C92.65125,95.32 93.13875,91.75 91.5625,86.33125 C89.985,80.91375 75.125,61.16625 74.9225,50.25875 C74.67125,36.7075 78.2775,22.74375 72.225,12.0075 Z M70.64625,41.61625 L64.16,39.0175 L64.43375,37.37625 C66.4525,37.07875 68.55875,36.88625 70.75625,36.81875 C70.71,38.4075 70.6675,40.01625 70.64625,41.61625 Z M61.5025,40.51375 L59.5875,52.02375 L48.70625,47.56875 L49.65,41.91875 C52.0625,40.74875 54.665,39.72125 57.46875,38.8975 L61.5025,40.51375 Z M85.93875,93.83625 L85.22875,93.5725 L86.54,86.2225 C87.41875,89.21 87.365,91.545 85.93875,93.83625 Z M78.17375,100.525 C76.1575,101.795 74.38375,102.76625 72.80875,103.48625 L70.3875,102.7675 L72.02375,91.2 L82.54125,95.1075 L82.05375,97.84625 C80.96125,98.695 79.67625,99.57875 78.17375,100.525 Z M60.42125,102.28875 L67.74625,104.4625 L67.66,105.0775 C64.43125,105.46125 62.34625,104.22 60.42125,102.28875 Z M28.9525,20.6725 C32.09375,18.75 35.18625,17.20375 38.18125,15.9875 L38.66875,16.145 L36.7,26.865 C36.27625,27.07875 35.86,27.29625 35.4475,27.51625 L26.13125,23.785 L26.435,22.28375 C27.24125,21.745 28.07875,21.20625 28.9525,20.6725 Z M82.96625,92.73125 L72.365,88.7925 L74.35375,74.7225 L83.25,78.56625 C83.855,79.74875 84.41,80.8825 84.89125,81.9375 L82.96625,92.73125 Z M70.0825,87.94375 L56.84,83.02375 L59.3025,68.22 L72.09,73.74375 L70.0825,87.94375 Z M56.61625,97.93 C55.995,97.2225 55.3925,96.34125 54.79375,95.33125 L56.44375,85.41125 L69.745,90.3525 L68.085,102.08375 L57.485,98.93875 C57.2025,98.60625 56.915,98.26875 56.61625,97.93 Z M46.60625,60.1475 L48.30625,49.97 L59.19,54.42625 L57.4575,64.835 L46.60625,60.1475 Z M43.50375,45.43875 C44.5725,44.725 45.69,44.035 46.86,43.37875 C46.91,43.35 46.96125,43.3225 47.0125,43.29375 L46.4525,46.64625 L43.50375,45.43875 Z M44.38125,38.98 C42.06375,40.29 39.93625,41.70875 37.98375,43.1775 L36.25125,42.46875 L38.215,31.765 C38.425,31.65625 38.635,31.5475 38.8475,31.44125 L48.35625,35.2475 L48.04875,37.08625 C46.77875,37.68375 45.555,38.31625 44.38125,38.98 Z M27.58625,38.92 C29.89,36.9575 32.52625,35.04 35.525,33.2675 L34.00375,41.54875 L27.58625,38.92 Z M50.6225,21.68 C46.50875,22.74 42.75625,24.07625 39.34625,25.6075 L40.94625,16.88375 L50.8875,20.09625 L50.6225,21.68 Z M49.70625,27.165 L48.7575,32.8475 L41.7775,30.05125 C44.22,28.97375 46.85875,27.99875 49.70625,27.165 Z M51.015,33.7525 L52.23,26.4775 C55.8775,25.5575 59.84875,24.86625 64.17,24.475 L62.83375,32.51625 C59.57625,33.0475 56.51875,33.83375 53.66125,34.8125 L51.015,33.7525 Z M51.2825,17.7275 L41.8,14.66 C45.48125,13.4525 48.97125,12.7475 52.165,12.4525 L51.2825,17.7275 Z M23.40875,25.255 L21.16875,36.29375 L14.20375,33.4425 C16.31,30.66625 19.1,27.80375 22.715,24.97875 L23.40875,25.255 Z M25.65125,26.1525 L32.79125,29.0125 C29.3475,31.0625 26.345,33.2925 23.74125,35.56625 L25.65125,26.1525 Z M21.93,44.4875 C23.03375,43.2325 24.25875,41.95625 25.61625,40.6825 L33.56625,43.9375 L32.92625,47.42625 C31.18875,49.05125 29.64625,50.6775 28.2925,52.23875 L20.9975,49.0875 L21.93,44.4875 Z M34.2875,53.16625 C36.2575,51.125 38.56,49.035 41.20375,47.0625 L46.05125,49.0475 L44.35875,59.1775 L34.00375,54.705 L34.2875,53.16625 Z M57.05625,67.25 L54.57375,82.18125 L46.29375,79.105 C45.5775,77.965 44.81375,76.85 43.995,75.78 L46.20375,62.56125 L57.05625,67.25 Z M54.17625,84.56875 L52.95625,91.9 C51.52625,89.02875 50.01125,85.67375 48.1875,82.3425 L54.17625,84.56875 Z M74.69875,72.2825 L75.72625,65.01125 C77.4375,68.01375 79.5575,71.6725 81.47875,75.21 L74.69875,72.2825 Z M73.81,61.59 L72.43625,71.305 L59.70375,65.805 L61.4425,55.35 L73.02125,60.09 C73.23875,60.5225 73.505,61.0275 73.81,61.59 Z M65.3,32.1675 L66.46875,25.13375 L70.975,26.59125 C70.98625,28.2075 70.95375,29.9475 70.90625,31.76375 C68.97875,31.8125 67.11,31.95125 65.3,32.1675 Z M69.97375,18.12875 C70.0925,18.415 70.19625,18.73625 70.29,19.0825 C69.3325,19.1025 68.3875,19.13625 67.4575,19.18375 L68.045,15.65375 C68.94875,16.395 69.60375,17.23 69.97375,18.12875 Z M65.865,14.27875 L65.02375,19.3375 C62.78375,19.51 60.6225,19.75625 58.54125,20.0725 L53.5675,18.465 L54.59625,12.30125 C59.24,12.16625 63.12,12.93625 65.865,14.27875 Z M13.04625,35.535 L20.52125,38.59375 C17.945,41.19875 15.86,43.7825 14.19375,46.14625 L9.04125,43.92 C9.69375,41.04875 13.04625,35.535 13.04625,35.535 Z M9.67875,52.60125 C8.85125,51.1325 8.41875,48.9675 8.655,46.3425 L12.845,48.1525 C11.6225,50.04875 10.6875,51.745 10,53.12 C9.88875,52.9475 9.77625,52.775 9.67875,52.60125 Z M17.54625,50.18375 L18.28625,50.5025 L16.56,59.01 C15.5625,58.36375 14.61375,57.69625 13.74625,57.00875 C14.38125,55.57 15.59125,53.11375 17.54625,50.18375 Z M18.7175,60.3275 L20.515,51.465 L26.705,54.13875 C24.125,57.355 22.395,60.13875 21.435,61.825 C20.5175,61.34625 19.6075,60.845 18.7175,60.3275 Z M31.2475,56.56625 L29.57875,65.65875 C28.4575,65.1725 27.24125,64.635 25.9725,64.05 C26.9375,62.39625 28.67875,59.66625 31.2475,56.56625 Z M31.8175,66.62125 L33.565,57.1025 L43.95625,61.59125 L41.98625,73.385 C39.9075,71.1325 37.4975,69.205 34.645,67.85875 C33.96625,67.54 32.99125,67.1225 31.8175,66.62125 Z M71.87875,57.055 L61.84375,52.94625 L63.76125,41.4175 L70.6325,44.16875 C70.64625,48.96875 70.92,53.53625 71.87875,57.055 Z" id="Shape" fill="#000000" fill-rule="nonzero"></path>
            </g>
        </g>
    </g>
</svg>