<svg id="Layer_1" xmlns="http://www.w3.org/2000/svg" viewBox="0 0 114 71"><style>.st0{fill:#bcbcbc}.st1{fill:#fff}.st2{fill:#2e31a6}.st3{fill:#ec1c24}</style><path id="Shield_2_" class="st0" d="M100.878 8.178l6.586-7.522H22.396l6.583 7.522H.769l18.588 15.806-4.485 22.426h6.52l-2.226 11.062L55.36 69.698l35.568-12.241 2.215-11.048h8.966l7.662-38.231h-8.893zm-1.23 35.228H18.536l4.221-20.567L8.938 11.181h97.168l-6.458 32.225z"/><path class="st1" d="M8.938 11.181L22.757 22.84l-4.221 20.567h81.112l6.458-32.225H8.938zm68.37 29.313H52.445a.23.23 0 0 1-.057.048c-.135.074-.77.104-.994-.048h-1.823l2.781-13.88-6.85 13.88h-9.597l-1.288-13.88-2.781 13.88h-9.26l3.772-18.822-8.854-7.53h25.21l.702 12.877 5.861-12.877h15.829c.236-.088 1.097-.013 1.24 0h9.059l-3.719 18.557h7.197l-1.565 7.795zm19.782.033H79.152l5.281-26.351h10.741l-3.719 18.556h7.197l-1.562 7.795z"/><path id="Stroke_2_" class="st0" d="M111.911 8.178l-8.039 40.433h-9.048l-1.909 10.428-34.298 11.715 36.393-9.787 1.789-9.83h9.046L114 11.206z"/><g id="Lacrosse_2_"><path class="st2" d="M37.302 56.497l-.263-1.746h-3.172c-.308.561-.658 1.184-.966 1.746h-1.973l4.953-9.108h2.049l1.347 9.108h-1.975zm-.929-6.451c-.526.971-1.069 1.958-1.595 2.93h2.049l-.454-2.93zM46.134 50.061c-.117-.41-.248-.668-.616-.956H43.62a3.802 3.802 0 0 0-.712.607l-.892 4.524c-.003.015.159.349.481.562h1.928c.361-.213.666-.531.954-.911l1.647.425c-.212.38-.456.699-.708.971-.466.516-1.332 1.29-2.258 1.29h-1.988c-.364 0-.717-.137-.945-.288-.28-.197-.737-.805-.893-1.093-.125-.288-.132-.638-.072-.941l.906-4.599c.066-.334.189-.653.444-.941.23-.243.948-.88 1.339-1.093.27-.137.679-.288 1.043-.288h1.988c.926 0 1.472.774 1.737 1.275.177.334.266.653.325.972l-1.81.484zM55.086 51.852c-.178.212-.739.668-.981.82a2.833 2.833 0 0 1-.406.212c.474 1.366 1.261 3.613 1.261 3.613h-2.064l-1.121-3.476h-1.457l-.685 3.476H47.78l1.795-9.108h4.432c.38 0 .823.137 1.07.349.18.167.542.638.655.835.144.273.157.668.091 1.002l-.254 1.29a2.081 2.081 0 0 1-.483.987zm-1.105-2.323a.861.861 0 0 0-.323-.364h-2.58l-.41 2.08h2.58c.046 0 .345-.212.466-.364l.267-1.352zM62.82 55.176c-.248.258-.954.911-1.326 1.108-.288.152-.695.288-1.059.288h-2.307a1.75 1.75 0 0 1-.945-.288c-.295-.197-.758-.85-.89-1.108-.141-.288-.135-.622-.073-.941l.901-4.569a1.99 1.99 0 0 1 .447-.956c.23-.243.951-.895 1.323-1.093.288-.152.679-.288 1.059-.288h2.307c.364 0 .717.136.945.288.295.197.743.85.893 1.093.14.288.135.622.069.956l-.901 4.569a1.97 1.97 0 0 1-.443.941zm-.508-5.51a1.604 1.604 0 0 0-.436-.562h-2.231a3.912 3.912 0 0 0-.675.577l-.898 4.554c.122.228.329.486.436.562h2.231a5.13 5.13 0 0 0 .672-.562l.901-4.569zM67.349 49.635l-.159.805c-.012.061.028.091.028.091l3.649 1.047c.79.228 1.059 1.017.913 1.761l-.177.896a2.262 2.262 0 0 1-.459.941c-.254.288-.969.911-1.326 1.108-.27.137-.694.288-1.059.288h-2.322c-.926 0-1.487-.774-1.749-1.29a3.123 3.123 0 0 1-.324-.971l1.82-.531c.138.379.312.804.589 1.017h2.307c.252-.122.645-.501.648-.516l.177-.896c.015-.076-.028-.091-.028-.091-1.194-.334-2.428-.698-3.637-1.032-.805-.228-1.059-1.017-.913-1.761l.164-.835c.054-.273.174-.653.431-.956.233-.258.963-.88 1.354-1.093.27-.137.679-.288 1.044-.288h2.155c.926 0 1.472.774 1.737 1.275.177.334.266.653.325.972l-1.811.486c-.116-.41-.248-.668-.616-.956h-2.095c-.266.12-.663.515-.666.529zM75.528 49.635l-.158.805c-.012.061.028.091.028.091l3.649 1.047c.79.228 1.059 1.017.913 1.761l-.177.896a2.262 2.262 0 0 1-.459.941c-.254.288-.969.911-1.326 1.108-.27.137-.694.288-1.059.288h-2.322c-.926 0-1.487-.774-1.749-1.29a3.123 3.123 0 0 1-.324-.971l1.82-.531c.138.379.312.804.589 1.017h2.307c.252-.122.645-.501.648-.516l.177-.896c.015-.076-.028-.091-.028-.091-1.194-.334-2.428-.698-3.637-1.032-.805-.228-1.059-1.017-.913-1.761l.164-.835c.054-.273.174-.653.431-.956.233-.258.963-.88 1.354-1.093.27-.137.679-.288 1.044-.288h2.155c.926 0 1.472.774 1.737 1.275.177.334.266.653.325.972l-1.811.486c-.116-.41-.248-.668-.616-.956h-2.095c-.267.12-.664.515-.667.529zM80.549 56.497l1.795-9.108h5.981l-.35 1.776h-4.129l-.368 1.867h3.992l-.35 1.776h-3.992l-.377 1.913h4.129l-.35 1.776h-5.981zM30.598 54.706h-4.099l1.443-7.317H26.09l-1.795 9.108h5.329z"/></g><path class="st3" d="M68.651 7.139l1.039-5.253h1.119l-.835 4.22h2.441l-.204 1.033h-3.56zM73.322 7.139l1.039-5.253h3.615l-.203 1.024h-2.496l-.213 1.077h2.413l-.203 1.024h-2.413l-.218 1.103h2.496l-.203 1.024h-3.614zM81.654 7.139l-.168-1.007h-1.918c-.183.324-.392.683-.575 1.007H77.8l2.948-5.253h1.239l.861 5.253h-1.194zm-.595-3.721c-.313.56-.636 1.129-.949 1.69h1.239l-.29-1.69zM85.856 1.851h1.395c.56 0 .894.446 1.057.735.109.193.164.376.201.56l-1.092.28c-.073-.236-.153-.385-.377-.552H85.7a1.924 1.924 0 0 0-.425.341L84.75 5.87c-.009.044.149.219.282.289h1.34c.15-.061.399-.254.411-.315l.156-.788h-1.257l.197-.998h2.377l-.39 1.97c-.021.105-.03.289-.034.499l-.013.622h-1.11l-.006-.158c-.029.009-.102.053-.133.07-.122.061-.244.123-.382.123h-1.386c-.229 0-.434-.079-.573-.166-.17-.114-.453-.447-.547-.622a.91.91 0 0 1-.049-.543l.526-2.662c.038-.193.113-.385.265-.552.138-.14.57-.517.795-.63.174-.088.417-.158.637-.158zM92.798 6.378c-.14.149-.563.525-.787.639a1.547 1.547 0 0 1-.639.166H90.06c-.229 0-.434-.079-.573-.166-.179-.114-.463-.49-.543-.639-.086-.166-.085-.359-.049-.543l.781-3.949h1.119l-.779 3.94c.084.131.209.289.274.333h1.257a1.9 1.9 0 0 0 .394-.324l.781-3.949h1.12l-.781 3.949a1.104 1.104 0 0 1-.263.543zM93.712 7.139l1.039-5.253h3.615l-.203 1.024h-2.496l-.213 1.077h2.413l-.203 1.024h-2.413l-.218 1.103h2.496l-.203 1.024h-3.614z"/><path id="Star_2_" class="st2" d="M63.051 2.008l.643 1.81 1.845-.002-1.496 1.212.545 1.713-1.537-1.061-1.538 1.061.546-1.713-1.496-1.212 1.845.002z"/><g id="Major_2_"><path class="st3" d="M44.797 1.887l-.204 1.038h1.527l-.58 2.936c-.009.044-.325.298-.398.298h-.661c-.169-.123-.279-.306-.364-.525l-1.095.245c.039.219.113.403.201.56.161.298.504.744 1.064.744h.33l-.002.009h.349c.22 0 .456-.079.639-.166.224-.114.646-.482.776-.63a1.15 1.15 0 0 0 .282-.543l.784-3.966h-2.648zM36.571 1.887c-.558.779-1.123 1.593-1.682 2.381l-.759-2.381h-1.22L31.871 7.14h1.12l.623-3.152.569 1.9h.734c.437-.63.894-1.269 1.332-1.909l-.625 3.16h1.12l1.039-5.253h-1.212zM40.407 1.887L37.459 7.14h1.193c.183-.324.392-.683.575-1.007h1.918l.168 1.007h1.193l-.861-5.253h-1.238zm-.637 3.221c.313-.56.636-1.129.949-1.69l.29 1.69H39.77zM51.916 2.018a1.123 1.123 0 0 0-.573-.166h-1.395a1.49 1.49 0 0 0-.638.166c-.224.114-.657.49-.795.63a1.116 1.116 0 0 0-.265.552l-.521 2.635c-.036.184-.038.376.049.543.081.149.364.525.544.639.139.088.343.166.573.166h1.395c.22 0 .465-.079.639-.166.224-.114.648-.49.796-.639a1.1 1.1 0 0 0 .263-.543l.52-2.635c.038-.193.039-.385-.047-.552-.091-.14-.366-.516-.545-.63zm-1.048 3.817c-.125.123-.32.271-.404.324h-1.349a1.222 1.222 0 0 1-.266-.324l.519-2.626c.14-.149.321-.28.405-.333h1.349a.95.95 0 0 1 .266.324l-.52 2.635zM57.588 2.569a3.148 3.148 0 0 0-.4-.482c-.15-.123-.419-.201-.648-.201h-2.68l-1.039 5.253h1.12l.396-2.005h.881l.696 2.005h1.248s-.487-1.296-.781-2.084c.08-.035.161-.07.244-.123.146-.088.482-.35.589-.473.152-.166.245-.359.287-.569l.147-.744c.038-.191.028-.419-.06-.577zM56.38 3.9c-.072.088-.253.21-.28.21h-1.56l.237-1.199h1.56c.083.044.165.14.197.21l-.154.779z"/></g><g><path class="st3" d="M98.652 32.732l-1.562 7.795H79.152l5.281-26.351h10.741l-3.718 18.556zM78.871 32.698l-1.563 7.796H49.571l2.781-13.88-6.85 13.88h-9.597l-1.288-13.88-2.782 13.88h-9.26l3.772-18.822-8.855-7.531h25.21l.702 12.877 5.861-12.877h26.129l-3.719 18.557z"/><path id="Player" class="st1" d="M70.332 22.943l-.042-.171s.126-.094.159-.131c.033-.039.142-.112.135-.142-.009-.029-1.604-2.703-1.818-2.838-.213-.135-1.479-1.073-1.479-1.073l.034-.301.15-.113.193-.146.091-.766.168-.152-.071-.358.157-.05s0-.246-.015-.383-.075-.649-.117-.742c-.043-.094-.112-.311-.133-.363a2.279 2.279 0 0 0-.682-.751c-.485-.337-.706-.318-.706-.318l-.02-.002c-.143-.013-1.004-.088-1.24 0-.257.096-.586.286-.715.427-.128.141-.22.253-.238.281-.199.307-.199 1.196-.199 1.196l-.11.074.062.552-.143.03.079.762.446.341-.017.211s-2.713.177-2.816.243c-.103.067-4.485 3.864-4.485 3.864l-.237-.234-.698.699-1.681 1.204s-.147-.056-.235-.103c-.087-.048-.207-.202-.349-.445-.143-.242-.269-.413-.622-.491-.354-.077-.84-.157-1.016-.283-.177-.126-.498-.518-.6-.595a.972.972 0 0 0-.625-.191 1.05 1.05 0 0 0-.813.405 1.916 1.916 0 0 0-.357 1.507c.13.742.487.957.606 1.032a.59.59 0 0 0 .421.103 1.98 1.98 0 0 0 .384-.093c.074-.025.221-.112.319-.167a.857.857 0 0 1 .423-.131c.203-.008.515.067.667.104.153.037.316.094.542.072.227-.022.38-.088.46-.154.08-.066.201-.196.544-.152-.117.128-.16.305-.115.434.044.129.263.24.439.114.085.174.182.276.382.22a.374.374 0 0 0 .367.184c.107.16.267.222.366.179.099-.043.243-.209.271-.241.028-.031.018-.174.018-.174s.447-.212.491-.269c1.157.238 4.187.876 4.187.876l-.688 2.755.523.33s-.057.938-.06 1.182c-.002.244-.032.365-.025.562-.16.169-1.313 1.33-1.382 1.381-.069.051-.068.078-.072.11-.004.033.054.109.16.213-.452.519-1.171 1.367-1.171 1.367s-.119-.025-.321.022a.71.71 0 0 0-.393.231c-.08.092-2.685 2.516-2.886 2.654-.413-.064-1.518.281-1.561.318-.044.036-.116.132-.116.132l-.128.24-.056.327.004.638s-.14.261-.226.352c-.086.092-.335.406-.335.406s-.408.594-.469.823c-.029.107-.019.803.058.884a.148.148 0 0 0 .039.031c.224.153.859.123.994.048a.284.284 0 0 0 .057-.048c.107-.114.237-.366.276-.44.046-.089.145-.274.174-.342.028-.068.225-.464.225-.464s.033-.081.07-.123c.037-.042.095-.152.163-.229.067-.076.255-.308.329-.372.075-.064.181-.151.229-.22.047-.069.139-.181.139-.181s.149-.037.214-.048c.065-.011.213-.06.278-.085.064-.024-.042-.221-.056-.319.113-.081.424-.254.578-.318.154-.062.732-.374.732-.374s1.711-.907 2.009-1.075c.28-.157.758-.553.758-.553s-.075.611-.089.962c-.004.109-.045.339-.055.427-.01.089-.027.238-.04.283a.655.655 0 0 1-.185.225c-.065.041-.141.15-.141.214.001.064-.018.305-.011.417.008.112-.027.302-.027.302l-.069.16s-.217.327-.258.378c-.04.051-.058.205-.066.261-.009.057-.026.15.005.196.031.046.186.203.193.246.008.044 1.137.095 1.137.095l.172-.019s.191-.039.193-.071c.001-.032.041-.667.054-.72.012-.053.095-.254.117-.324.024-.07.085-.27.117-.333.031-.062.059-.119.074-.137.015-.017.028-.067.031-.127a2.252 2.252 0 0 0-.016-.295c-.01-.079-.069-.475.005-.676.073-.201.401-.96.558-1.248.156-.286.607-.814.819-1.281.18.164.251.211.288.236.038.026.102.098.156.054.053-.044.141-.158.188-.222.047-.062.237-.328.278-.375a.399.399 0 0 0 .076-.234c-.005-.072-.009-.208-.009-.208s.499-1.187.572-1.276c.072-.089.199-.152.311-.268.112-.116.277-.343.524-.582.248-.239.994-.987 1.182-1.216.188-.229.482-.67.482-.67l.811.094.366-1.303s.565-2.308.61-2.437c.288-.002 1.011-.065 1.011-.065s1.657-.073 1.87-.124c.212-.051.892-.884.92-.916.029-.027-.367-1.764-.385-1.829zm-9.656 2.259l-4.039-.828.46-.538s.821-.272.821-.301c-.005-.072-.015-.286-.015-.286s3.2-1.926 3.215-1.9c.015.026.207 1.78.207 1.78l-.649 2.073zm7.809-1.113c-.025.029-.082.102-.197.145-.114.042-.384.137-.452.163-.067.026-.432.214-.432.214l.119-.355.173-.298.398-.161.31.029s.093.139.114.157c.024.019-.007.077-.033.106z"/><path id="Ball" class="st3" d="M53.061 23.023a.525.525 0 0 1-1.045.073.521.521 0 0 1 .112-.36c.29.104.661.198.801.211a.32.32 0 0 1 .127.039.15.15 0 0 1 .005.037z"/></g></svg>